<?xml version="1.0" encoding="utf-8"?>
<!-- Generator: Adobe Illustrator 23.1.1, SVG Export Plug-In . SVG Version: 6.00 Build 0)  -->
<svg version="1.1" id="Layer_1" xmlns="http://www.w3.org/2000/svg" xmlns:xlink="http://www.w3.org/1999/xlink" x="0px" y="0px"
	 viewBox="0 0 1500 822" style="enable-background:new 0 0 1500 822;" xml:space="preserve">
<style type="text/css">
	.st0{opacity:0.298;fill:#CFD5EA;}
	.st1{fill:none;stroke:#4059AA;stroke-width:4.27;stroke-linejoin:bevel;stroke-miterlimit:10;}
	.st2{fill:none;stroke:#4059AA;stroke-width:2.13;stroke-linejoin:round;stroke-miterlimit:10;stroke-dasharray:8.54,8.54;}
	.st3{fill:none;stroke:#744EC6;stroke-width:1.07;stroke-linecap:square;stroke-miterlimit:10;}
</style>
<polygon class="st0" points="276.5,409.1 279.8,411.8 283.1,409.7 286.4,409.6 289.7,411.1 292.9,411.4 296.2,411 299.5,410 
	302.8,410.7 306.1,412.8 309.4,412.7 312.7,412.6 316,412.9 319.2,411.5 322.5,412.9 325.8,409.8 329.1,411 332.4,412.9 335.7,413 
	339,409.7 342.3,412.3 345.6,412 348.8,412.4 352.1,410.1 355.4,412.3 358.7,409 362,411.3 365.3,409.8 368.6,412.2 371.9,411.3 
	375.1,411.7 378.4,410.9 381.7,412.8 385,409.5 388.3,410.1 391.6,412.1 394.9,409.7 398.2,410.1 401.5,409.9 404.7,410.9 
	408,411.6 411.3,412 414.6,410.2 417.9,409.4 421.2,409.2 424.5,409.7 427.8,411.3 431,409.4 434.3,410.7 437.6,412 440.9,409.1 
	444.2,409.9 447.5,409.7 450.8,411.6 454.1,411.2 457.4,412.3 460.6,410 463.9,411.4 467.2,412.6 470.5,412.3 473.8,412.1 
	477.1,411.2 480.4,412.6 483.7,412.2 486.9,411.1 490.2,412.1 493.5,410.6 496.8,411.8 500.1,409.3 503.4,410.6 506.7,410.3 
	510,411.3 513.2,409.6 516.5,410 519.8,412 523.1,412 526.4,413 529.7,412.7 533,412.3 536.3,412.7 539.6,409.6 542.8,412.6 
	546.1,411 549.4,410.5 552.7,409.8 556,409.3 559.3,409.5 562.6,410.7 565.9,410 569.1,409.1 572.4,409.6 575.7,412 579,410.5 
	582.3,409.4 585.6,409.5 588.9,412.1 592.2,411.3 595.5,409.6 598.7,409.4 602,409.4 605.3,410 608.6,412.2 611.9,412.3 
	615.2,412.9 618.5,412.4 621.8,410.1 625,410.5 628.3,412.2 631.6,410.5 634.9,409.1 638.2,410.7 641.5,411.3 644.8,409.1 
	648.1,412.5 651.4,412.7 654.6,409.1 657.9,412.2 661.2,411.4 664.5,409.3 667.8,411.7 671.1,411.1 674.4,412.2 677.7,410.3 
	680.9,409.4 684.2,409.2 687.5,409 690.8,409.8 694.1,410.9 697.4,411.6 700.7,412.8 704,410.4 707.3,409.6 710.5,410.4 
	713.8,410.1 717.1,412.3 720.4,410 723.7,411.7 727,412.6 730.3,410.7 733.6,411.2 736.8,409 740.1,411.6 743.4,412.1 746.7,411.6 
	750,409.2 753.3,412.4 756.6,410.1 759.9,410.1 763.2,409.6 766.4,410.5 769.7,410 773,409.8 776.3,409.6 779.6,411.6 782.9,409.8 
	786.2,410.6 789.5,409.9 792.7,411.9 796,412.2 799.3,410 802.6,412.2 805.9,409.8 809.2,412 812.5,411.2 815.8,410.2 819.1,410.9 
	822.3,411.5 825.6,409.8 828.9,409.3 832.2,411.9 835.5,409.4 838.8,411 842.1,411.7 845.4,410.8 848.6,412.7 851.9,411.1 
	855.2,409.9 858.5,411.3 861.8,412.5 865.1,410.9 868.4,411 871.7,412.7 875,412.2 878.2,411.5 881.5,410 884.8,412 888.1,411.9 
	891.4,409.5 894.7,409.2 898,412.4 901.3,410.3 904.5,412.9 907.8,412.1 911.1,409.9 914.4,410.4 917.7,410.3 921,410.6 
	924.3,410.7 927.6,412.1 930.8,411 934.1,412.2 937.4,411.1 940.7,410.3 944,409.4 947.3,410.3 950.6,410.3 953.9,412.9 
	957.2,410.8 960.4,410.3 963.7,410 967,410.2 970.3,411 973.6,410.1 976.9,410.1 980.2,411.1 983.5,411.1 986.8,409.5 990,412.8 
	993.3,410.7 996.6,410 999.9,411.1 1003.2,411.5 1006.5,410.5 1009.8,410.3 1013.1,409.5 1016.3,409.9 1019.6,409.9 1022.9,410.7 
	1026.2,411 1029.5,412.3 1032.8,412.3 1036.1,409.9 1039.4,410.5 1042.6,409.8 1045.9,411.4 1049.2,409.1 1052.5,409.9 
	1055.8,412.1 1059.1,412.8 1062.4,409.7 1065.7,411.2 1069,411.5 1072.2,410.3 1075.5,411.6 1078.8,412.3 1082.1,412.5 
	1085.4,411.7 1088.7,412.4 1092,409.4 1095.3,409.1 1098.5,410.9 1101.8,412.3 1105.1,411.8 1108.4,411.6 1111.7,410.9 1115,409.1 
	1118.3,410.8 1121.6,410.4 1124.9,409.2 1128.1,411.7 1131.4,411 1134.7,411.7 1138,409.9 1141.3,411.3 1144.6,410.8 1147.9,409.5 
	1151.2,409.9 1154.4,411.5 1157.7,410.5 1161,411.2 1164.3,412.6 1167.6,412.6 1170.9,411.7 1174.2,410 1177.5,412.8 1180.8,409.1 
	1184,410 1187.3,411.8 1190.6,412.9 1193.9,410.2 1197.2,409 1200.5,410.5 1203.8,411.1 1207.1,411.8 1210.3,409.4 1213.6,411.4 
	1216.9,409.2 1220.2,411.9 1223.5,410.1 1223.5,451 1220.2,451 1216.9,451 1213.6,451 1210.3,451 1207.1,451 1203.8,451 1200.5,451 
	1197.2,451 1193.9,451 1190.6,451 1187.3,451 1184,451 1180.8,451 1177.5,451 1174.2,451 1170.9,451 1167.6,451 1164.3,451 
	1161,451 1157.7,451 1154.4,451 1151.2,451 1147.9,451 1144.6,451 1141.3,451 1138,451 1134.7,451 1131.4,451 1128.1,451 
	1124.9,451 1121.6,451 1118.3,451 1115,451 1111.7,451 1108.4,451 1105.1,451 1101.8,451 1098.5,451 1095.3,451 1092,451 
	1088.7,451 1085.4,451 1082.1,451 1078.8,451 1075.5,451 1072.2,451 1069,451 1065.7,451 1062.4,451 1059.1,451 1055.8,451 
	1052.5,451 1049.2,451 1045.9,451 1042.6,451 1039.4,451 1036.1,451 1032.8,451 1029.5,451 1026.2,451 1022.9,451 1019.6,451 
	1016.3,451 1013.1,451 1009.8,451 1006.5,451 1003.2,451 999.9,451 996.6,451 993.3,451 990,451 986.8,451 983.5,451 980.2,451 
	976.9,451 973.6,451 970.3,451 967,451 963.7,451 960.4,451 957.2,451 953.9,451 950.6,451 947.3,451 944,451 940.7,451 937.4,451 
	934.1,451 930.8,451 927.6,451 924.3,451 921,451 917.7,451 914.4,451 911.1,451 907.8,451 904.5,451 901.3,451 898,451 894.7,451 
	891.4,451 888.1,451 884.8,451 881.5,451 878.2,451 875,451 871.7,451 868.4,451 865.1,451 861.8,451 858.5,451 855.2,451 
	851.9,451 848.6,451 845.4,451 842.1,451 838.8,451 835.5,451 832.2,451 828.9,451 825.6,451 822.3,451 819.1,451 815.8,451 
	812.5,451 809.2,451 805.9,451 802.6,451 799.3,451 796,451 792.7,451 789.5,451 786.2,451 782.9,451 779.6,451 776.3,451 773,451 
	769.7,451 766.4,451 763.2,451 759.9,451 756.6,451 753.3,451 750,451 746.7,451 743.4,451 740.1,451 736.8,451 733.6,451 
	730.3,451 727,451 723.7,451 720.4,451 717.1,451 713.8,451 710.5,451 707.3,451 704,451 700.7,451 697.4,451 694.1,451 690.8,451 
	687.5,451 684.2,451 680.9,451 677.7,451 674.4,451 671.1,451 667.8,451 664.5,451 661.2,451 657.9,451 654.6,451 651.4,451 
	648.1,451 644.8,451 641.5,451 638.2,451 634.9,451 631.6,451 628.3,451 625,451 621.8,451 618.5,451 615.2,451 611.9,451 
	608.6,451 605.3,451 602,451 598.7,451 595.5,451 592.2,451 588.9,451 585.6,451 582.3,451 579,451 575.7,451 572.4,451 569.1,451 
	565.9,451 562.6,451 559.3,451 556,451 552.7,451 549.4,451 546.1,451 542.8,451 539.6,451 536.3,451 533,451 529.7,451 526.4,451 
	523.1,451 519.8,451 516.5,451 513.2,451 510,451 506.7,451 503.4,451 500.1,451 496.8,451 493.5,451 490.2,451 486.9,451 
	483.7,451 480.4,451 477.1,451 473.8,451 470.5,451 467.2,451 463.9,451 460.6,451 457.4,451 454.1,451 450.8,451 447.5,451 
	444.2,451 440.9,451 437.6,451 434.3,451 431,451 427.8,451 424.5,451 421.2,451 417.9,451 414.6,451 411.3,451 408,451 404.7,451 
	401.5,451 398.2,451 394.9,451 391.6,451 388.3,451 385,451 381.7,451 378.4,451 375.1,451 371.9,451 368.6,451 365.3,451 362,451 
	358.7,451 355.4,451 352.1,451 348.8,451 345.6,451 342.3,451 339,451 335.7,451 332.4,451 329.1,451 325.8,451 322.5,451 
	319.2,451 316,451 312.7,451 309.4,451 306.1,451 302.8,451 299.5,451 296.2,451 292.9,451 289.7,451 286.4,451 283.1,451 
	279.8,451 276.5,451 "/>
<polyline class="st1" points="276.5,409.1 279.8,411.8 283.1,409.7 286.4,409.6 289.7,411.1 292.9,411.4 296.2,411 299.5,410 
	302.8,410.7 306.1,412.8 309.4,412.7 312.7,412.6 316,412.9 319.2,411.5 322.5,412.9 325.8,409.8 329.1,411 332.4,412.9 335.7,413 
	339,409.7 342.3,412.3 345.6,412 348.8,412.4 352.1,410.1 355.4,412.3 358.7,409 362,411.3 365.3,409.8 368.6,412.2 371.9,411.3 
	375.1,411.7 378.4,410.9 381.7,412.8 385,409.5 388.3,410.1 391.6,412.1 394.9,409.7 398.2,410.1 401.5,409.9 404.7,410.9 
	408,411.6 411.3,412 414.6,410.2 417.9,409.4 421.2,409.2 424.5,409.7 427.8,411.3 431,409.4 434.3,410.7 437.6,412 440.9,409.1 
	444.2,409.9 447.5,409.7 450.8,411.6 454.1,411.2 457.4,412.3 460.6,410 463.9,411.4 467.2,412.6 470.5,412.3 473.8,412.1 
	477.1,411.2 480.4,412.6 483.7,412.2 486.9,411.1 490.2,412.1 493.5,410.6 496.8,411.8 500.1,409.3 503.4,410.6 506.7,410.3 
	510,411.3 513.2,409.6 516.5,410 519.8,412 523.1,412 526.4,413 529.7,412.7 533,412.3 536.3,412.7 539.6,409.6 542.8,412.6 
	546.1,411 549.4,410.5 552.7,409.8 556,409.3 559.3,409.5 562.6,410.7 565.9,410 569.1,409.1 572.4,409.6 575.7,412 579,410.5 
	582.3,409.4 585.6,409.5 588.9,412.1 592.2,411.3 595.5,409.6 598.7,409.4 602,409.4 605.3,410 608.6,412.2 611.9,412.3 
	615.2,412.9 618.5,412.4 621.8,410.1 625,410.5 628.3,412.2 631.6,410.5 634.9,409.1 638.2,410.7 641.5,411.3 644.8,409.1 
	648.1,412.5 651.4,412.7 654.6,409.1 657.9,412.2 661.2,411.4 664.5,409.3 667.8,411.7 671.1,411.1 674.4,412.2 677.7,410.3 
	680.9,409.4 684.2,409.2 687.5,409 690.8,409.8 694.1,410.9 697.4,411.6 700.7,412.8 704,410.4 707.3,409.6 710.5,410.4 
	713.8,410.1 717.1,412.3 720.4,410 723.7,411.7 727,412.6 730.3,410.7 733.6,411.2 736.8,409 740.1,411.6 743.4,412.1 746.7,411.6 
	750,409.2 753.3,412.4 756.6,410.1 759.9,410.1 763.2,409.6 766.4,410.5 769.7,410 773,409.8 776.3,409.6 779.6,411.6 782.9,409.8 
	786.2,410.6 789.5,409.9 792.7,411.9 796,412.2 799.3,410 802.6,412.2 805.9,409.8 809.2,412 812.5,411.2 815.8,410.2 819.1,410.9 
	822.3,411.5 825.6,409.8 828.9,409.3 832.2,411.9 835.5,409.4 838.8,411 842.1,411.7 845.4,410.8 848.6,412.7 851.9,411.1 
	855.2,409.9 858.5,411.3 861.8,412.5 865.1,410.9 868.4,411 871.7,412.7 875,412.2 878.2,411.5 881.5,410 884.8,412 888.1,411.9 
	891.4,409.5 894.7,409.2 898,412.4 901.3,410.3 904.5,412.9 907.8,412.1 911.1,409.9 914.4,410.4 917.7,410.3 921,410.6 
	924.3,410.7 927.6,412.1 930.8,411 934.1,412.2 937.4,411.1 940.7,410.3 944,409.4 947.3,410.3 950.6,410.3 953.9,412.9 
	957.2,410.8 960.4,410.3 963.7,410 967,410.2 970.3,411 973.6,410.1 976.9,410.1 980.2,411.1 983.5,411.1 986.8,409.5 990,412.8 
	993.3,410.7 996.6,410 999.9,411.1 1003.2,411.5 1006.5,410.5 1009.8,410.3 1013.1,409.5 1016.3,409.9 1019.6,409.9 1022.9,410.7 
	1026.2,411 1029.5,412.3 1032.8,412.3 1036.1,409.9 1039.4,410.5 1042.6,409.8 1045.9,411.4 1049.2,409.1 1052.5,409.9 
	1055.8,412.1 1059.1,412.8 1062.4,409.7 1065.7,411.2 1069,411.5 1072.2,410.3 1075.5,411.6 1078.8,412.3 1082.1,412.5 
	1085.4,411.7 1088.7,412.4 1092,409.4 1095.3,409.1 1098.5,410.9 1101.8,412.3 1105.1,411.8 1108.4,411.6 1111.7,410.9 1115,409.1 
	1118.3,410.8 1121.6,410.4 1124.9,409.2 1128.1,411.7 1131.4,411 1134.7,411.7 1138,409.9 1141.3,411.3 1144.6,410.8 1147.9,409.5 
	1151.2,409.9 1154.4,411.5 1157.7,410.5 1161,411.2 1164.3,412.6 1167.6,412.6 1170.9,411.7 1174.2,410 1177.5,412.8 1180.8,409.1 
	1184,410 1187.3,411.8 1190.6,412.9 1193.9,410.2 1197.2,409 1200.5,410.5 1203.8,411.1 1207.1,411.8 1210.3,409.4 1213.6,411.4 
	1216.9,409.2 1220.2,411.9 1223.5,410.1 "/>
<line class="st2" x1="276.5" y1="391" x2="1223.5" y2="391"/>
<rect x="276.5" y="371" class="st3" width="947" height="80"/>
</svg>
