<?xml version="1.0" encoding="utf-8"?>
<!-- Generator: Adobe Illustrator 23.1.1, SVG Export Plug-In . SVG Version: 6.00 Build 0)  -->
<svg version="1.1" id="Layer_1" xmlns="http://www.w3.org/2000/svg" xmlns:xlink="http://www.w3.org/1999/xlink" x="0px" y="0px"
	 viewBox="0 0 1500 822" style="enable-background:new 0 0 1500 822;" xml:space="preserve">
<style type="text/css">
	.st0{opacity:0.298;fill:#CFD5EA;}
	.st1{fill:none;stroke:#4059AA;stroke-width:2;stroke-linejoin:bevel;stroke-miterlimit:10;}
	.st2{fill:none;stroke:#4059AA;stroke-linejoin:round;stroke-miterlimit:10;stroke-dasharray:3,3;}
	.st3{opacity:0;fill:none;stroke:#744EC6;stroke-width:1.07;stroke-linecap:square;stroke-miterlimit:10;}
</style>
<g>
	<polygon class="st0" points="279.8,446.9 283.1,441.6 286.3,450.6 289.6,439.8 292.9,445.7 296.2,442.3 299.4,442.6 302.7,439.9 
		306,447.7 309.3,446.3 312.5,443.8 315.8,450.5 319.1,444.5 322.4,440.5 325.7,439.7 328.9,439 332.2,439.4 335.5,439.4 338.8,447 
		342,450 345.3,440 348.6,445 351.9,445.8 355.1,439.9 358.4,446.9 361.7,448.5 365,450.3 368.3,449.8 371.5,450.3 374.8,437.9 
		378.1,441.4 381.4,438.7 384.6,439.8 387.9,441.3 391.2,447.7 394.5,441.5 397.7,438.6 401,448.2 404.3,443.5 407.6,442.8 
		410.9,440.2 414.1,443.1 417.4,448.5 420.7,442.9 424,439.7 427.2,447.3 430.5,449 433.8,445.2 437.1,444 440.3,440 443.6,450.6 
		446.9,446 450.2,449.2 453.4,442.9 456.7,449.8 460,441.1 463.3,445.6 466.6,440.4 469.8,438.8 473.1,440.9 476.4,443.9 
		479.7,449.9 482.9,447.9 486.2,438.3 489.5,446.2 492.8,443.8 496,448.4 499.3,447.5 502.6,449.8 505.9,440 509.2,449.8 
		512.4,449.1 515.7,441 519,446.3 522.3,439.6 525.5,441.4 528.8,443.6 532.1,444.6 535.4,448.2 538.6,440.8 541.9,444.7 
		545.2,449.7 548.5,450.8 551.8,442.7 555,448 558.3,446.3 561.6,442.3 564.9,447.1 568.1,447.5 571.4,448.9 574.7,437.8 578,441.2 
		581.2,438.1 584.5,448.5 587.8,444.1 591.1,440.1 594.3,446.2 597.6,450.2 600.9,446.7 604.2,448.1 607.5,442.1 610.7,446.6 
		614,438.6 617.3,446.9 620.6,444.3 623.8,447 627.1,438.4 630.4,439.4 633.7,441.3 636.9,446.7 640.2,438.2 643.5,445.2 
		646.8,439.7 650.1,449.2 653.3,443.4 656.6,443.8 659.9,439.8 663.2,450.2 666.4,449.8 669.7,440.8 673,446.7 676.3,446.9 
		679.5,449.1 682.8,447.1 686.1,446.4 689.4,441.6 692.7,439.9 695.9,442.2 699.2,438.8 702.5,450.7 705.8,444.1 709,441.8 
		712.3,445.1 715.6,439.6 718.9,449.2 722.1,439.9 725.4,445.4 728.7,450.3 732,447 735.3,450.3 738.5,442 741.8,445.7 745.1,444.9 
		748.4,445.3 751.6,439.3 754.9,444.4 758.2,450.6 761.5,444.9 764.7,439.9 768,450.8 771.3,448.4 774.6,441.8 777.9,446.3 
		781.1,438 784.4,443.1 787.7,443.3 791,446.5 794.2,442.3 797.5,442.6 800.8,446.8 804.1,442 807.3,439 810.6,444.3 813.9,440.5 
		817.2,440.9 820.5,449.2 823.7,440.9 827,445.3 830.3,446.3 833.6,443.2 836.8,449.7 840.1,450.3 843.4,448.5 846.7,443.8 
		849.9,450.9 853.2,441 856.5,441.9 859.8,442.7 863.1,443.4 866.3,443.1 869.6,442.5 872.9,439.5 876.2,439 879.4,444.1 
		882.7,444.8 886,438.5 889.3,450.1 892.5,446.9 895.8,446.1 899.1,450.1 902.4,441 905.7,446.1 908.9,444.5 912.2,438.6 
		915.5,444.3 918.8,443.9 922,440.9 925.3,440.4 928.6,449.3 931.9,442.3 935.1,443.6 938.4,448.3 941.7,448.5 945,440.2 
		948.2,449.9 951.5,450 954.8,438.6 958.1,446 961.4,446 964.6,448.2 967.9,443.3 971.2,443 974.5,440.7 977.7,444.8 981,448.2 
		984.3,443.7 987.6,439.1 990.8,441.4 994.1,440.1 997.4,447.2 1000.7,448.8 1004,440 1007.2,441.6 1010.5,447.7 1013.8,439.7 
		1017.1,441 1020.3,442.4 1023.6,446 1026.9,442.1 1030.2,441.2 1033.4,446.3 1036.7,447.5 1040,439.3 1043.3,445.4 1046.6,441.5 
		1049.8,448.8 1053.1,438.8 1056.4,443.3 1059.7,441 1062.9,450 1066.2,447.5 1069.5,446.8 1072.8,447.1 1076,438.8 1079.3,439.8 
		1082.6,443.2 1085.9,443.2 1089.1,440 1092.4,450.6 1095.7,450.6 1099,448.4 1102.3,440.6 1105.5,437.9 1108.8,445.5 1112.1,443.5 
		1115.4,441.9 1118.6,450.1 1121.9,444.1 1125.2,444 1128.5,446.6 1131.7,449.1 1135,442.7 1138.3,445.2 1141.6,438.4 1144.9,440.6 
		1148.1,438.1 1151.4,439.1 1154.7,446.3 1158,439.9 1161.2,445 1164.5,444.2 1167.8,448.7 1171.1,444.5 1174.3,441.6 1177.6,447.5 
		1180.9,448.8 1184.2,450.4 1187.5,450 1190.7,400.7 1194,398.2 1197.3,390.4 1200.6,392.3 1203.8,397.3 1207.1,399.3 1210.4,396.6 
		1213.7,379.5 1216.9,381.4 1220.2,394.7 1223.5,381.6 1223.5,451 1220.2,451 1216.9,451 1213.7,451 1210.4,451 1207.1,451 
		1203.8,451 1200.6,451 1197.3,451 1194,451 1190.7,451 1187.5,451 1184.2,451 1180.9,451 1177.6,451 1174.3,451 1171.1,451 
		1167.8,451 1164.5,451 1161.2,451 1158,451 1154.7,451 1151.4,451 1148.1,451 1144.9,451 1141.6,451 1138.3,451 1135,451 
		1131.7,451 1128.5,451 1125.2,451 1121.9,451 1118.6,451 1115.4,451 1112.1,451 1108.8,451 1105.5,451 1102.3,451 1099,451 
		1095.7,451 1092.4,451 1089.1,451 1085.9,451 1082.6,451 1079.3,451 1076,451 1072.8,451 1069.5,451 1066.2,451 1062.9,451 
		1059.7,451 1056.4,451 1053.1,451 1049.8,451 1046.6,451 1043.3,451 1040,451 1036.7,451 1033.4,451 1030.2,451 1026.9,451 
		1023.6,451 1020.3,451 1017.1,451 1013.8,451 1010.5,451 1007.2,451 1004,451 1000.7,451 997.4,451 994.1,451 990.8,451 987.6,451 
		984.3,451 981,451 977.7,451 974.5,451 971.2,451 967.9,451 964.6,451 961.4,451 958.1,451 954.8,451 951.5,451 948.2,451 945,451 
		941.7,451 938.4,451 935.1,451 931.9,451 928.6,451 925.3,451 922,451 918.8,451 915.5,451 912.2,451 908.9,451 905.7,451 
		902.4,451 899.1,451 895.8,451 892.5,451 889.3,451 886,451 882.7,451 879.4,451 876.2,451 872.9,451 869.6,451 866.3,451 
		863.1,451 859.8,451 856.5,451 853.2,451 849.9,451 846.7,451 843.4,451 840.1,451 836.8,451 833.6,451 830.3,451 827,451 
		823.7,451 820.5,451 817.2,451 813.9,451 810.6,451 807.3,451 804.1,451 800.8,451 797.5,451 794.2,451 791,451 787.7,451 
		784.4,451 781.1,451 777.9,451 774.6,451 771.3,451 768,451 764.7,451 761.5,451 758.2,451 754.9,451 751.6,451 748.4,451 
		745.1,451 741.8,451 738.5,451 735.3,451 732,451 728.7,451 725.4,451 722.1,451 718.9,451 715.6,451 712.3,451 709,451 705.8,451 
		702.5,451 699.2,451 695.9,451 692.7,451 689.4,451 686.1,451 682.8,451 679.5,451 676.3,451 673,451 669.7,451 666.4,451 
		663.2,451 659.9,451 656.6,451 653.3,451 650.1,451 646.8,451 643.5,451 640.2,451 636.9,451 633.7,451 630.4,451 627.1,451 
		623.8,451 620.6,451 617.3,451 614,451 610.7,451 607.5,451 604.2,451 600.9,451 597.6,451 594.3,451 591.1,451 587.8,451 
		584.5,451 581.2,451 578,451 574.7,451 571.4,451 568.1,451 564.9,451 561.6,451 558.3,451 555,451 551.8,451 548.5,451 545.2,451 
		541.9,451 538.6,451 535.4,451 532.1,451 528.8,451 525.5,451 522.3,451 519,451 515.7,451 512.4,451 509.2,451 505.9,451 
		502.6,451 499.3,451 496,451 492.8,451 489.5,451 486.2,451 482.9,451 479.7,451 476.4,451 473.1,451 469.8,451 466.6,451 
		463.3,451 460,451 456.7,451 453.4,451 450.2,451 446.9,451 443.6,451 440.3,451 437.1,451 433.8,451 430.5,451 427.2,451 424,451 
		420.7,451 417.4,451 414.1,451 410.9,451 407.6,451 404.3,451 401,451 397.7,451 394.5,451 391.2,451 387.9,451 384.6,451 
		381.4,451 378.1,451 374.8,451 371.5,451 368.3,451 365,451 361.7,451 358.4,451 355.1,451 351.9,451 348.6,451 345.3,451 342,451 
		338.8,451 335.5,451 332.2,451 328.9,451 325.7,451 322.4,451 319.1,451 315.8,451 312.5,451 309.3,451 306,451 302.7,451 
		299.4,451 296.2,451 292.9,451 289.6,451 286.3,451 283.1,451 279.8,451 	"/>
	<polyline class="st1" points="279.8,446.9 283.1,441.6 286.3,450.6 289.6,439.8 292.9,445.7 296.2,442.3 299.4,442.6 302.7,439.9 
		306,447.7 309.3,446.3 312.5,443.8 315.8,450.5 319.1,444.5 322.4,440.5 325.7,439.7 328.9,439 332.2,439.4 335.5,439.4 338.8,447 
		342,450 345.3,440 348.6,445 351.9,445.8 355.1,439.9 358.4,446.9 361.7,448.5 365,450.3 368.3,449.8 371.5,450.3 374.8,437.9 
		378.1,441.4 381.4,438.7 384.6,439.8 387.9,441.3 391.2,447.7 394.5,441.5 397.7,438.6 401,448.2 404.3,443.5 407.6,442.8 
		410.9,440.2 414.1,443.1 417.4,448.5 420.7,442.9 424,439.7 427.2,447.3 430.5,449 433.8,445.2 437.1,444 440.3,440 443.6,450.6 
		446.9,446 450.2,449.2 453.4,442.9 456.7,449.8 460,441.1 463.3,445.6 466.6,440.4 469.8,438.8 473.1,440.9 476.4,443.9 
		479.7,449.9 482.9,447.9 486.2,438.3 489.5,446.2 492.8,443.8 496,448.4 499.3,447.5 502.6,449.8 505.9,440 509.2,449.8 
		512.4,449.1 515.7,441 519,446.3 522.3,439.6 525.5,441.4 528.8,443.6 532.1,444.6 535.4,448.2 538.6,440.8 541.9,444.7 
		545.2,449.7 548.5,450.8 551.8,442.7 555,448 558.3,446.3 561.6,442.3 564.9,447.1 568.1,447.5 571.4,448.9 574.7,437.8 578,441.2 
		581.2,438.1 584.5,448.5 587.8,444.1 591.1,440.1 594.3,446.2 597.6,450.2 600.9,446.7 604.2,448.1 607.5,442.1 610.7,446.6 
		614,438.6 617.3,446.9 620.6,444.3 623.8,447 627.1,438.4 630.4,439.4 633.7,441.3 636.9,446.7 640.2,438.2 643.5,445.2 
		646.8,439.7 650.1,449.2 653.3,443.4 656.6,443.8 659.9,439.8 663.2,450.2 666.4,449.8 669.7,440.8 673,446.7 676.3,446.9 
		679.5,449.1 682.8,447.1 686.1,446.4 689.4,441.6 692.7,439.9 695.9,442.2 699.2,438.8 702.5,450.7 705.8,444.1 709,441.8 
		712.3,445.1 715.6,439.6 718.9,449.2 722.1,439.9 725.4,445.4 728.7,450.3 732,447 735.3,450.3 738.5,442 741.8,445.7 745.1,444.9 
		748.4,445.3 751.6,439.3 754.9,444.4 758.2,450.6 761.5,444.9 764.7,439.9 768,450.8 771.3,448.4 774.6,441.8 777.9,446.3 
		781.1,438 784.4,443.1 787.7,443.3 791,446.5 794.2,442.3 797.5,442.6 800.8,446.8 804.1,442 807.3,439 810.6,444.3 813.9,440.5 
		817.2,440.9 820.5,449.2 823.7,440.9 827,445.3 830.3,446.3 833.6,443.2 836.8,449.7 840.1,450.3 843.4,448.5 846.7,443.8 
		849.9,450.9 853.2,441 856.5,441.9 859.8,442.7 863.1,443.4 866.3,443.1 869.6,442.5 872.9,439.5 876.2,439 879.4,444.1 
		882.7,444.8 886,438.5 889.3,450.1 892.5,446.9 895.8,446.1 899.1,450.1 902.4,441 905.7,446.1 908.9,444.5 912.2,438.6 
		915.5,444.3 918.8,443.9 922,440.9 925.3,440.4 928.6,449.3 931.9,442.3 935.1,443.6 938.4,448.3 941.7,448.5 945,440.2 
		948.2,449.9 951.5,450 954.8,438.6 958.1,446 961.4,446 964.6,448.2 967.9,443.3 971.2,443 974.5,440.7 977.7,444.8 981,448.2 
		984.3,443.7 987.6,439.1 990.8,441.4 994.1,440.1 997.4,447.2 1000.7,448.8 1004,440 1007.2,441.6 1010.5,447.7 1013.8,439.7 
		1017.1,441 1020.3,442.4 1023.6,446 1026.9,442.1 1030.2,441.2 1033.4,446.3 1036.7,447.5 1040,439.3 1043.3,445.4 1046.6,441.5 
		1049.8,448.8 1053.1,438.8 1056.4,443.3 1059.7,441 1062.9,450 1066.2,447.5 1069.5,446.8 1072.8,447.1 1076,438.8 1079.3,439.8 
		1082.6,443.2 1085.9,443.2 1089.1,440 1092.4,450.6 1095.7,450.6 1099,448.4 1102.3,440.6 1105.5,437.9 1108.8,445.5 1112.1,443.5 
		1115.4,441.9 1118.6,450.1 1121.9,444.1 1125.2,444 1128.5,446.6 1131.7,449.1 1135,442.7 1138.3,445.2 1141.6,438.4 1144.9,440.6 
		1148.1,438.1 1151.4,439.1 1154.7,446.3 1158,439.9 1161.2,445 1164.5,444.2 1167.8,448.7 1171.1,444.5 1174.3,441.6 1177.6,447.5 
		1180.9,448.8 1184.2,450.4 1187.5,450 1190.7,400.7 1194,398.2 1197.3,390.4 1200.6,392.3 1203.8,397.3 1207.1,399.3 1210.4,396.6 
		1213.7,379.5 1216.9,381.4 1220.2,394.7 1223.5,381.6 	"/>
	<line class="st2" x1="276.5" y1="405.3" x2="1223.5" y2="405.3"/>
	<rect x="276.5" y="371" class="st3" width="947" height="80"/>
</g>
</svg>
