<?xml version="1.0" encoding="utf-8"?>
<!-- Generator: Adobe Illustrator 23.1.1, SVG Export Plug-In . SVG Version: 6.00 Build 0)  -->
<svg version="1.1" id="Layer_1" xmlns="http://www.w3.org/2000/svg" xmlns:xlink="http://www.w3.org/1999/xlink" x="0px" y="0px"
	 viewBox="0 0 1500 822" style="enable-background:new 0 0 1500 822;" xml:space="preserve">
<style type="text/css">
	.st0{opacity:0.298;fill:#CFD5EA;}
	.st1{fill:none;stroke:#4059AA;stroke-width:4.27;stroke-linejoin:bevel;stroke-miterlimit:10;}
	.st2{fill:none;stroke:#4059AA;stroke-width:2.13;stroke-linejoin:round;stroke-miterlimit:10;stroke-dasharray:8.54,8.54;}
</style>
<path class="st0" d="M278.9,59.7l3.3,3.9l3.3-1.5l3.3,3.1l3.3,0.2l3.3-4.4l3.3,4l3.3,0.4l3.3-3l3.3-2.6l3.3,5.6l3.3-0.9l3.3-2.8
	l3.3-0.4l3.3,0.5l3.3,0.2l3.3,2.3l3.3,0.4L338,60l3.3,5l3.3-2.6l3.3,2.8l3.3-4.2l3.3-0.8l3.3,3.2l3.3,0.1l3.3-1.8l3.3,3.9l3.3-4.1
	l3.3,4.5l3.3-1.1l3.3-0.6l3.3-2.9l3.3-0.4l3.3,2.5l3.3,0.7l3.3-5.1l3.3,3.3l3.3,1.7l3.3,0.1l3.3-4.4l3.3,1.8l3.3-1l3.3,3.1l3.3,2
	l3.3-1.7l3.3-5.2l3.3,3.5l3.3,1.7l3.3-5.5l3.3,1.2l3.3,1.1l3.3-2.4l3.3,6.1l3.3-3.5l3.3,1.1l3.3-0.9l3.3-2.5l3.3,0.2l3.3,3.6
	l3.3-1.6l3.3-2.1l3.3,5l3.3-0.8l3.3-2l3.3,1.6l3.3-2l3.3,0.4l3.3-0.2l3.3,0.4l3.3-2.2l3.3-0.7l3.3,1.6l3.3,0.2l3.3,0.4l3.3,1.4
	l3.3-2.3l3.3,0.4l3.3,0l3.3-0.3l3.3-1.1l3.3,1.8l3.3,4.2l3.3-6.5l3.3,1.3l3.3,1.7l3.3-0.8l3.3,4.9l3.3-2.1l3.3-2.4l3.3-1l3.3-0.9
	l3.3,3.2l3.3,1.4l3.3,1.5l3.3-0.1l3.3-3.3l3.3-0.4l3.3-0.4l3.3,2l3.3-2.3l3.3,5.3l3.3-2.9l3.3-1.7l3.3,2.7l3.3,0.7l3.3-4.2l3.3-1.3
	l3.3,4.5l3.3,1.8l3.3-6l3.3,6.1l3.3-4.9l3.3-0.2l3.3,5.1l3.3-2l3.3,0.4l3.3-2.8l3.3-0.4l3.3,2.5l3.3,1.1l3.3-3.7L680,65l3.3-0.7
	l3.3-3.7l3.3,1.8l3.3,2.8l3.3-1l3.3-0.5l3.3-4.9l3.3,7.2l3.3-6.8l3.3,3.6l3.3,2.6l3.3,0.5l3.3-6.9l3.3,2.7l3.3-1.6l3.3,2l3.3,0.7
	l3.3-2l3.3,1l3.3-2.9l3.3,5l3.3-3.5l3.3,1.1l3.3-0.3l3.3-0.9l3.3,4.3l3.3-5.5l3.3-0.5l3.3,4.7l3.3,2L782,62l3.3,0.4l3.3,1.5l3.3-4.2
	l3.3,3.5l3.3-3l3.3,2.2l3.3,3.5l3.3-4.5l3.3,3.6l3.3-3.8l3.3,2.9l3.3-5.6l3.3,0.1l3.3,4.7l3.3-3.5l3.3,3.4l3.3,1.3l3.3,0l3.3-5.2
	l3.3,3l3.3,2.1l3.3-4.4l3.3,0.6l3.3,1.6l3.3,0.1l3.3,2.7l3.3-5.4l3.3,4.1l3.3,1.8l3.3-6l3.3,4.2l3.3-0.4l3.3,0.3l3.3,0L897,64
	l3.3-2.1l3.3,3.8l3.3-2l3.3-1.7l3.3-2.3l3.3,2.6l3.3,2.1l3.3-2.9l3.3-0.8l3.3,2.1l3.3,1.3l3.3-3l3.3,5.1l3.3-1.6l3.3-0.2l3.3-4.2
	l3.3,4.9l3.3-5.4l3.3-0.2l3.3,4l3.3-4.6l3.3,5.6l3.3-3.6l3.3,3.5l3.3-4.5l3.3,1.1l3.3-0.8l3.3,1.1l3.3-1l3.3,0.6l3.3-0.8l3.3,1.1
	l3.3,3.1l3.3-2.1l3.3,0.2l3.3,1.3l3.3-4.5l3.3,5.6l3.3-3.9l3.3,1.2l3.3,1l3.3-2.8l3.3,2l3.3,3.3l3.3-2.5l3.3,0l3.3,1.5l3.3,0.3
	l3.3-5l3.3,3.3l3.3,2.9l3.3-7.2l3.3,0.1l3.3,5.7l3.3-2.8l3.3-2.6l3.3-0.5l3.3,1l3.3,3.7l3.3-4l3.3,0.3l3.3-0.2l3.3,6.6l3.3-7.4
	l3.3,6.9l3.3-6.4l3.3,0.4l3.3,3l3.3-1.6l3.3-1.3l3.3,3.9l3.3-0.1l3.3-4.7l3.3,0.3l3.3,3.5l3.3-1.6l3.3,3.5l3.3-5l3.3,1l3.3,23.2
	l3.3,5.7l3.3-2.8l3.3,2.1l3.3-6.8l3.3,2.4l3.3,0.1l3.3,6.1l3.3-4.1l3.3-5.7l3.3,4.5l3.3-2.6l3.3,8.5l3.3-3.2l3.3-2.4l3.3,2.9
	l3.3-11.1l3.3,4.6l3.3,5.7l3.3-8.8l3.3,5v40.6h-3.3c-310.3,0-626.2,0-940.4,0h-3.3V59.7z"/>
<polyline class="st1" points="278.9,59.7 282.1,63.6 285.4,62 288.7,65.2 292,65.4 295.3,61 298.6,65 301.9,65.4 305.2,62.3 
	308.5,59.7 311.7,65.3 315,64.4 318.3,61.7 321.6,61.3 324.9,61.7 328.2,62 331.5,64.3 334.8,64.7 338,60 341.3,65 344.6,62.4 
	347.9,65.2 351.2,61 354.5,60.2 357.8,63.4 361.1,63.5 364.4,61.7 367.6,65.6 370.9,61.5 374.2,66.1 377.5,65 380.8,64.4 
	384.1,61.5 387.4,61.1 390.7,63.6 393.9,64.4 397.2,59.3 400.5,62.6 403.8,64.4 407.1,64.4 410.4,60.1 413.7,61.9 417,60.9 
	420.2,64 423.5,66 426.8,64.3 430.1,59.1 433.4,62.7 436.7,64.4 440,58.9 443.3,60.1 446.6,61.2 449.8,58.9 453.1,64.9 456.4,61.4 
	459.7,62.5 463,61.7 466.3,59.2 469.6,59.4 472.9,63 476.2,61.4 479.4,59.3 482.7,64.3 486,63.6 489.3,61.5 492.6,63.1 495.9,61.2 
	499.2,61.6 502.5,61.4 505.7,61.8 509,59.6 512.3,58.9 515.6,60.5 518.9,60.7 522.2,61.1 525.5,62.5 528.8,60.2 532,60.6 
	535.3,60.6 538.6,60.3 541.9,59.2 545.2,61 548.5,65.2 551.8,58.7 555.1,59.9 558.4,61.6 561.6,60.8 564.9,65.7 568.2,63.6 
	571.5,61.2 574.8,60.2 578.1,59.3 581.4,62.5 584.7,63.8 588,65.3 591.2,65.2 594.5,61.9 597.8,61.5 601.1,61.1 604.4,63.1 
	607.7,60.8 611,66.1 614.3,63.3 617.5,61.5 620.8,64.3 624.1,65 627.4,60.8 630.7,59.4 634,63.9 637.3,65.7 640.6,59.7 643.8,65.8 
	647.1,60.9 650.4,60.7 653.7,65.8 657,63.7 660.3,64.1 663.6,61.3 666.9,60.8 670.2,63.4 673.4,64.5 676.7,60.7 680,65 683.3,64.2 
	686.6,60.5 689.9,62.3 693.2,65.1 696.5,64.1 699.7,63.6 703,58.7 706.3,65.9 709.6,59.2 712.9,62.8 716.2,65.4 719.5,65.9 
	722.8,59 726.1,61.7 729.3,60.1 732.6,62.1 735.9,62.8 739.2,60.9 742.5,61.9 745.8,59 749.1,64 752.4,60.5 755.6,61.5 758.9,61.2 
	762.2,60.4 765.5,64.7 768.8,59.2 772.1,58.8 775.4,63.4 778.7,65.4 782,62 785.2,62.4 788.5,64 791.8,59.8 795.1,63.3 798.4,60.3 
	801.7,62.5 805,66.1 808.3,61.6 811.5,65.2 814.8,61.3 818.1,64.2 821.4,58.6 824.7,58.7 828,63.4 831.3,60 834.6,63.4 837.9,64.6 
	841.1,64.6 844.4,59.5 847.7,62.5 851,64.6 854.3,60.2 857.6,60.8 860.9,62.4 864.2,62.5 867.4,65.2 870.7,59.7 874,63.8 
	877.3,65.7 880.6,59.7 883.9,63.9 887.2,63.5 890.5,63.8 893.7,63.8 897,64 900.3,61.9 903.6,65.7 906.9,63.7 910.2,62 913.5,59.6 
	916.8,62.2 920.1,64.2 923.3,61.3 926.6,60.5 929.9,62.6 933.2,64 936.5,61 939.8,66.1 943.1,64.5 946.4,64.3 949.7,60 952.9,64.9 
	956.2,59.5 959.5,59.3 962.8,63.3 966.1,58.7 969.4,64.3 972.7,60.7 976,64.2 979.2,59.6 982.5,60.7 985.8,59.9 989.1,61.1 
	992.4,60 995.7,60.6 999,59.8 1002.3,61 1005.5,64.1 1008.8,61.9 1012.1,62.1 1015.4,63.4 1018.7,58.9 1022,64.5 1025.3,60.7 
	1028.6,61.9 1031.9,62.9 1035.1,60.1 1038.4,62.1 1041.7,65.4 1045,62.9 1048.3,62.9 1051.6,64.4 1054.9,64.8 1058.2,59.8 
	1061.4,63.1 1064.7,65.9 1068,58.7 1071.3,58.8 1074.6,64.6 1077.9,61.7 1081.2,59.1 1084.5,58.6 1087.8,59.6 1091,63.3 
	1094.3,59.3 1097.6,59.6 1100.9,59.4 1104.2,66 1107.5,58.7 1110.8,65.6 1114.1,59.1 1117.3,59.5 1120.6,62.5 1123.9,60.9 
	1127.2,59.6 1130.5,63.5 1133.8,63.4 1137.1,58.7 1140.4,59 1143.7,62.4 1146.9,60.8 1150.2,64.3 1153.5,59.3 1156.8,60.3 
	1160.1,83.5 1163.4,89.1 1166.7,86.3 1170,88.4 1173.2,81.6 1176.5,84 1179.8,84.1 1183.1,90.2 1186.4,86.1 1189.7,80.4 1193,84.9 
	1196.3,82.3 1199.6,90.9 1202.8,87.6 1206.1,85.2 1209.4,88 1212.7,76.9 1216,81.5 1219.3,87.2 1222.6,78.4 1225.9,83.4 "/>
<line class="st2" x1="278.9" y1="108.1" x2="1225.4" y2="108.1"/>
</svg>
